<svg id="Layer_1" xmlns="http://www.w3.org/2000/svg" viewBox="0 0 268.5 108.4"><style>.st0{fill:#006838}.st1{fill:#39b54a}.st2{fill:#f26522}</style><path class="st0" d="M199.7 103.7h4.3v4.3h-4.3v-4.3zm9.6 4.5s-.5-.3-1.6-.9c-1.1-.6-1.9-1.4-2.5-2.6-.6-1.1-.9-2.5-.9-4.1v-1.7c0-1.6.3-2.9.9-4s1.4-2 2.5-2.5c1.1-.6 2.4-.9 4-.9.9 0 1.7.1 2.5.3s1.5.5 2.1.9 1.1.9 1.6 1.4l-2.8 2.7c-.4-.4-.9-.6-1.4-.9s-1.1-.3-1.7-.3c-1.1 0-1.9.3-2.5.9s-.9 1.4-.9 2.4v1.7c0 1.1.3 1.9.9 2.5s1.4.9 2.5.9c.6 0 1.2-.1 1.7-.3s1-.5 1.4-.9l2.8 2.8c-.4.5-1 1-1.6 1.4s-1.3.7-2.1.9-1.6.3-2.5.3h-2.4zm11.9-.8c-1-.6-1.8-1.4-2.4-2.4-.5-1.1-.8-2.3-.8-3.8v-2.6c0-1.5.3-2.7.8-3.8s1.3-1.8 2.4-2.4 2.3-.8 3.8-.8 2.7.3 3.8.8 1.8 1.3 2.4 2.4.8 2.3.8 3.8v2.7c0 1.5-.3 2.7-.8 3.8s-1.3 1.8-2.4 2.4c-1 .6-2.3.8-3.8.8-1.5-.1-2.7-.4-3.8-.9zm5.8-4.1c.5-.5.7-1.2.7-2.1v-2.7c0-.9-.2-1.6-.7-2.1s-1.2-.8-2-.8c-.9 0-1.5.3-2 .8s-.7 1.2-.7 2.1v2.7c0 .9.2 1.6.7 2.1s1.1.8 2 .8c.9 0 1.5-.3 2-.8zm5.3.4h4.3v4.3h-4.3v-4.3z"/><path class="st1" d="M242.3 101.6c0 .8.2 1.4.7 1.8.4.4 1.1.6 1.9.6s1.4-.2 1.9-.7c.4-.4.6-1.1.6-1.9l.2 3.5c-.3.9-.8 1.6-1.5 2.2-.7.6-1.6.9-2.6.9-1.7 0-3.1-.6-4-1.7-.9-1.1-1.4-2.7-1.4-4.8v-10h4.3v10.1h-.1zm5.1-9.8h4.3V108h-4.3V91.8zm6.2-6.5h4.3V108h-4.3V85.3zm2 16.8l7.6-10.4h4.5l-11.5 15.1-.6-4.7zm3.9-2.5l3.5-2.1 5.5 10.5h-5l-4-8.4z"/><path class="st0" d="M5.7 108.2l-1.9-1c-1.2-.7-2.2-1.6-2.8-2.9-.6-1.3-1-2.8-1-4.6v-6.3c0-1.8.3-3.3 1-4.6.6-1.3 1.6-2.2 2.8-2.9 1.2-.7 2.7-1 4.5-1 1.4 0 2.7.3 3.8.9 1.1.6 2.1 1.5 2.8 2.7.7 1.2 1.2 2.6 1.5 4.3h-4.5c-.2-.8-.4-1.4-.8-1.9s-.8-.9-1.3-1.2-1.1-.4-1.7-.4c-.8 0-1.5.2-2.1.5s-1 .8-1.3 1.4c-.3.6-.4 1.4-.4 2.3v6.3c0 .9.1 1.6.4 2.3.3.6.7 1.1 1.3 1.4s1.3.5 2.1.5c.6 0 1.2-.1 1.7-.4.5-.3.9-.7 1.3-1.2.3-.5.6-1.2.8-1.9h4.5c-.3 1.7-.8 3.1-1.5 4.3s-1.7 2.1-2.8 2.7c-1.1.6-2.4.9-3.8.9H5.7v-.2zm12.7-1.2c-.9-.8-1.3-2.1-1.3-3.8 0-1.6.5-2.8 1.5-3.6s2.4-1.2 4.4-1.2h3.9l.2 3.3h-4.2c-.6 0-1.1.1-1.5.4-.3.3-.5.6-.5 1.2 0 .5.2.9.6 1.2s1 .4 1.9.4c1.2 0 2-.1 2.6-.4.6-.3.8-.7.8-1.2l.3 2.4c-.1.6-.3 1.1-.8 1.5s-1.1.7-1.8.9c-.7.2-1.5.3-2.3.3-1.7-.2-3-.6-3.8-1.4m8.4-9.3c0-.8-.3-1.3-.8-1.7s-1.2-.6-2.1-.6c-.6 0-1.2.1-1.8.3-.6.2-1.1.5-1.6.8l-2.7-2.6c.6-.7 1.5-1.3 2.6-1.7s2.2-.6 3.5-.6c1.4 0 2.6.2 3.6.7s1.8 1.2 2.3 2.1c.5.9.8 2 .8 3.3v10.5h-3.9l.1-10.5zm5.9-5.8h4.6v16.3h-4.6V91.9zm8.4 4.1c-.3-.1-.7-.2-1.1-.2-.9 0-1.5.3-2 .8-.5.6-.7 1.3-.7 2.3l-.3-4.2c.4-1 1-1.7 1.7-2.3.7-.5 1.5-.8 2.4-.8.7 0 1.3.1 1.8.3s1 .5 1.4.9l-2.5 3.5c-.1 0-.4-.2-.7-.3"/><path class="st1" d="M44.5 85.4h4.3v22.8h-4.3V85.4zm1.5 0h13.4v4.1H46v-4.1zm0 9.6h11.7v4.1H46V95zm14.1-3.1h4.3v16.3h-4.3zm6.1 0h4.3v16.3h-4.3V91.9zm9.4 6.4c0-.8-.2-1.4-.7-1.9-.5-.4-1.1-.7-1.9-.7-.8 0-1.4.2-1.8.7-.4.4-.7 1.1-.7 1.9l-.3-3.6c.5-1 1.1-1.8 1.8-2.3s1.5-.8 2.6-.8c1.7 0 3 .6 4 1.7.9 1.2 1.4 2.8 1.4 4.9v9.9h-4.3v-9.8h-.1zm6.8 8.7c-.9-.8-1.3-2.1-1.3-3.8 0-1.6.5-2.8 1.5-3.6s2.4-1.2 4.4-1.2h4.1l.2 3.3h-4.4c-.6 0-1.1.1-1.5.4-.3.3-.5.6-.5 1.2 0 .5.2.9.6 1.2.4.3 1 .4 1.9.4 1.2 0 2-.1 2.6-.4.6-.3.8-.7.8-1.2l.3 2.4c-.1.6-.3 1.1-.8 1.5s-1.1.7-1.8.9-1.5.3-2.3.3c-1.7-.2-3-.6-3.8-1.4m8.4-9.3c0-.8-.3-1.3-.8-1.7s-1.2-.6-2.1-.6c-.6 0-1.2.1-1.8.3s-1.1.5-1.6.8l-2.7-2.6c.6-.7 1.5-1.3 2.6-1.7s2.2-.6 3.5-.6c1.4 0 2.6.2 3.6.7s1.8 1.2 2.3 2.1c.5.9.8 2 .8 3.3v10.5h-3.9l.1-10.5zm5.9-5.8h4.3v16.3h-4.3V91.9zm9.4 6.4c0-.8-.2-1.4-.7-1.9-.5-.4-1.1-.7-1.9-.7-.8 0-1.4.2-1.8.7-.4.4-.7 1.1-.7 1.9l-.3-3.6c.5-1 1.1-1.8 1.8-2.3s1.5-.8 2.6-.8c1.7 0 3 .6 4 1.7.9 1.2 1.4 2.8 1.4 4.9v9.9h-4.3v-9.8h-.1zm10.9 9.9s-.6-.3-1.7-.9c-1.1-.6-1.9-1.5-2.5-2.6s-.9-2.5-.9-4.1v-1.7c0-1.6.3-2.9.9-4 .6-1.1 1.4-2 2.5-2.6s2.4-.9 4-.9c.9 0 1.7.1 2.5.3s1.5.5 2.1.9 1.2.9 1.6 1.4l-2.8 2.7c-.4-.4-.9-.7-1.4-.9s-1.1-.3-1.7-.3c-1.1 0-1.9.3-2.5.9-.6.6-.9 1.4-.9 2.5v1.7c0 1.1.3 1.9.9 2.5.6.6 1.4.9 2.5.9.6 0 1.2-.1 1.7-.3s1-.5 1.4-.9l2.8 2.9c-.4.5-1 1-1.6 1.4s-1.3.7-2.1.9-1.6.3-2.5.3l-2.3-.1zm13.8 0s-.6-.3-1.7-.9c-1.1-.6-2-1.4-2.6-2.5s-.9-2.4-.9-3.9v-1.8c0-1.6.3-3 .8-4.1.6-1.1 1.4-2 2.4-2.6 1.1-.6 2.4-.9 3.9-.9 1.4 0 2.6.4 3.7 1.1 1 .7 1.8 1.7 2.3 3.1.5 1.4.8 3 .8 4.9v1.1h-11.1v-3h7.2v-.4c-.1-.9-.4-1.7-.9-2.2s-1.1-.8-1.9-.8c-1 0-1.8.3-2.4.9-.6.6-.9 1.5-.9 2.6v2.1c0 1.1.3 2 .9 2.6.6.6 1.5.9 2.6.9.6 0 1.1-.1 1.7-.3s1.1-.5 1.5-.9l2.8 2.5c-.8.8-1.8 1.4-2.9 1.8-1.1.4-2.1.6-3.2.6l-2.1.1z"/><path class="st0" d="M140.7 100.7l7-15.3h4.9l-6.8 15.2H156v4.1h-15.3v-4zm9.2-5.9h4.3v13.4h-4.3V94.8z"/><path class="st1" d="M165.2 99.4v8.8h-4.3v-8.8l-6.7-14h4.5l4.4 9.8 4.3-9.8h4.5zm7.2 8c-1.1-.6-1.9-1.4-2.4-2.4-.5-1.1-.8-2.3-.8-3.8v-2.7c0-1.5.3-2.7.8-3.8s1.4-1.9 2.4-2.4c1.1-.5 2.3-.8 3.8-.8s2.8.3 3.8.8c1.1.5 1.9 1.3 2.4 2.4.5 1.1.8 2.3.8 3.8v2.7c0 1.5-.3 2.8-.8 3.8-.6 1.1-1.3 1.9-2.4 2.4-1.1.6-2.3.8-3.8.8-1.4 0-2.7-.3-3.8-.8m5.9-4.1c.5-.5.7-1.2.7-2.1v-2.7c0-.9-.2-1.6-.7-2.1s-1.2-.8-2-.8c-.9 0-1.5.3-2 .8s-.7 1.2-.7 2.1v2.7c0 .9.2 1.6.7 2.1s1.1.8 2 .8c.8 0 1.5-.3 2-.8m10.6-1.7c0 .8.2 1.4.7 1.8.4.4 1.1.7 1.9.7s1.4-.2 1.9-.7c.4-.4.7-1.1.7-1.9l.2 3.6c-.3.9-.8 1.6-1.5 2.2-.7.6-1.6.9-2.6.9-1.7 0-3.1-.6-4-1.7-1-1.1-1.4-2.7-1.4-4.8v-10h4.3v9.9h-.2zm5-9.9h4.3V108h-4.3V91.7z"/><path class="st2" d="M58.3 83c.8.5 1.9 1.5 2.9 2.9 1.3 1.9 1.7 3.9 1.9 4.9.9-2.5 2.5-6.1 5.5-9.8 3.3-4.1 6.9-6.5 9.2-7.9-1.9.6-4.6 1.7-7.3 3.7-3.9 2.8-6.2 6-7.4 8.1-.3-.4-1-1-1.9-1.4-1.3-.5-2.4-.5-2.9-.5"/><path class="st0" d="M190.4 40.8c-3.4-2.6-7.4-6.3-11.2-11.2-6.6-8.5-9.7-16.9-11.2-22.5-3.9-2.1-10.9-5.3-20.2-7.1v17.4h13.5l-27 27-27-27h13.5V0c-9.3 1.8-16.3 5-20.2 7.1-1.5 5.6-4.7 14-11.2 22.5-3.8 4.9-7.8 8.6-11.2 11.2-1 1.9-2.7 5.9-2.7 11.2s1.7 9.3 2.7 11.2h112.4c1-1.9 2.7-5.9 2.7-11.2s-1.9-9.3-2.9-11.2"/><path class="st1" d="M83.1 63.2h22.5v6.3H83.1zm79.9 0h22.5v6.3H163zm21.8-16.8c0 3.1-2.5 5.6-5.6 5.6s-5.6-2.5-5.6-5.6 2.5-5.6 5.6-5.6c3.1 0 5.6 2.5 5.6 5.6m-89.8 0c0 3.1-2.5 5.6-5.6 5.6s-5.6-2.5-5.6-5.6 2.5-5.6 5.6-5.6c3.1 0 5.6 2.5 5.6 5.6"/><path class="st0" d="M187.6 34.5h-5.2c-2.4 0-4.4-2-4.4-4.4V29c0-2.4 2-4.4 4.4-4.4h5.2c2.4 0 4.4 2 4.4 4.4v1.1c0 2.4-2 4.4-4.4 4.4m-101.4 0H81c-2.4 0-4.4-2-4.4-4.4V29c0-2.4 2-4.4 4.4-4.4h5.2c2.4 0 4.4 2 4.4 4.4v1.1c.1 2.4-1.9 4.4-4.4 4.4"/><path class="st1" d="M152.6 58.5H116c-2.3 0-4.2-1.9-4.2-4.2v-1c0-2.3 1.9-4.2 4.2-4.2h36.6c2.3 0 4.2 1.9 4.2 4.2v1c-.1 2.3-1.9 4.2-4.2 4.2m-4.8-41.2h13.5l-12.2 12.2H168c-1.9-6-3.7-12.1-5.6-18.1-3.9-1.1-8.9-2.3-14.6-3.1v9zm-40.5 0h13.5v-9c-5.7.8-10.6 1.9-14.6 3.1-1.9 6-3.7 12.1-5.6 18.1h18.9c-4.1-4-8.1-8.1-12.2-12.2"/></svg>