<svg xmlns="http://www.w3.org/2000/svg" xmlns:xlink="http://www.w3.org/1999/xlink" version="1.0" id="Layer_1" x="0px" y="0px" style="enable-background:new 0 0 596.7 419.5;" xml:space="preserve" viewBox="64.5 155.8 467.3 106.3">
<style type="text/css">
	.st0{fill:#34908d;}
	.st1{fill:#A0D0AD;}
	.st2{fill:#385D56;}
	.st3{fill:#EAEED4;}
	.st4{opacity:0.2;fill:#010101;enable-background:new    ;}
	.st5{clip-path:url(#SVGID_00000144323554392777689130000013388142591451966093_);fill:#334E46;}
	.st6{fill:#3A5E56;}
	.st7{fill:#F1F3DE;}
	.st8{fill:#334E46;}
	.st9{fill:#FFFFFF;}
	.st10{fill:#4EB3A2;}
	.st11{fill:#9DD4B1;}
</style>
<path class="st0" d="M196.1,216.8c5.4,0,9.8-2.1,13.2-6.4l7,7.2c-5.6,6.3-12.1,9.4-19.6,9.4c-7.5,0-13.7-2.4-18.6-7.1  c-4.9-4.8-7.3-10.8-7.3-18c0-7.3,2.5-13.3,7.5-18.2c5-4.9,11.1-7.3,18.2-7.3c8,0,14.7,3.1,20.2,9.2l-6.8,7.7  c-3.5-4.3-7.7-6.4-12.9-6.4c-4.1,0-7.6,1.3-10.5,4c-2.9,2.7-4.4,6.3-4.4,10.9c0,4.6,1.4,8.2,4.1,11  C188.8,215.4,192.2,216.8,196.1,216.8z"/>
<path class="st0" d="M252.4,226.4h-9.9v-4.6c-2.7,3.4-6.1,5.1-10,5.1c-4,0-7.3-1.2-10-3.5c-2.7-2.3-4.1-5.4-4.1-9.3  c0-3.9,1.4-6.7,4.2-8.7c2.8-1.9,6.6-2.9,11.5-2.9h7.8v-0.2c0-4-2.1-6-6.4-6c-1.8,0-3.7,0.4-5.8,1.1c-2,0.7-3.7,1.6-5.1,2.7l-4.7-6.8  c4.9-3.6,10.6-5.4,16.9-5.4c4.6,0,8.3,1.1,11.2,3.4c2.9,2.3,4.3,5.9,4.3,10.9V226.4z M241.8,212.1v-1.8h-6.6c-4.2,0-6.3,1.3-6.3,3.9  c0,1.4,0.5,2.4,1.5,3.1c1,0.7,2.4,1.1,4.3,1.1c1.9,0,3.5-0.6,4.9-1.7C241.1,215.5,241.8,214,241.8,212.1z"/>
<path class="st0" d="M277.2,198c-3.1,0-5.5,1.1-7,3.3c-1.5,2.2-2.3,5.2-2.3,8.8v16.3h-10.5v-37.7h10.5v5c1.4-1.5,3-2.8,5.1-3.9  c2-1.1,4.1-1.6,6.2-1.7l0.1,9.9H277.2z"/>
<path class="st0" d="M328,195.6l-13.2,26.8h-6.5l-13.2-26.8v30.8h-10.9v-49h14.8l12.6,26.9l12.7-26.9h14.7v49H328V195.6z"/>
<path class="st0" d="M382.2,207.6c0,5.5-1.9,10.1-5.7,13.8c-3.8,3.7-8.5,5.6-14.2,5.6c-5.7,0-10.5-1.9-14.2-5.6  c-3.8-3.7-5.7-8.3-5.7-13.8c0-5.5,1.9-10.1,5.7-13.8c3.8-3.8,8.5-5.6,14.2-5.6c5.7,0,10.5,1.9,14.2,5.6  C380.3,197.5,382.2,202.1,382.2,207.6z M353,207.6c0,3.1,0.9,5.6,2.6,7.5c1.8,1.9,4,2.9,6.7,2.9s5-1,6.7-2.9  c1.8-1.9,2.6-4.5,2.6-7.5c0-3.1-0.9-5.6-2.6-7.6c-1.8-2-4-2.9-6.7-2.9s-5,1-6.7,2.9C353.8,202,353,204.5,353,207.6z"/>
<path class="st0" d="M395.9,205.9v21h-10.5v-37.7h10.5v4.2c3.2-3.2,6.7-4.8,10.7-4.8c4,0,7.3,1.4,10,4.2c2.7,2.8,4,6.5,4,11.2V227  h-10.5v-21.3c0-5.8-2.1-8.7-6.4-8.7c-2.1,0-3.9,0.8-5.5,2.3C396.7,200.8,395.9,203,395.9,205.9z"/>
<path class="st0" d="M458.2,221c-4.2,4-9.2,6-14.9,6c-5.7,0-10.4-1.8-14.2-5.3c-3.7-3.5-5.6-8.3-5.6-14.2c0-5.9,1.9-10.7,5.7-14.2  c3.8-3.5,8.3-5.3,13.5-5.3s9.6,1.6,13.2,4.7c3.6,3.1,5.4,7.4,5.4,12.9v5.6h-27.4c0.3,2.1,1.4,3.7,3.2,5c1.8,1.3,3.9,2,6.2,2  c3.7,0,6.7-1.2,9.1-3.7L458.2,221z M448.1,198.6c-1.4-1.2-3.2-1.8-5.3-1.8c-2.1,0-4,0.6-5.7,1.9c-1.7,1.3-2.7,3-3,5.1h16.5  C450.4,201.6,449.6,199.8,448.1,198.6z"/>
<path class="st0" d="M471.8,241.3c-3.7,0-7.2-1.5-10.4-4.5l4.8-7.8c1.8,1.7,3.6,2.6,5.5,2.6c1,0,1.8-0.5,2.5-1.4c0.7-1,1.1-2,1.1-3  c0-1.1-4.9-13.9-14.6-38.4h11.2l9.2,23.5l9.2-23.5h11.2l-17.5,44.4c-1,2.6-2.6,4.6-4.8,6C476.8,240.6,474.4,241.3,471.8,241.3z"/>
<ellipse class="st1" cx="104.8" cy="216.2" rx="40.3" ry="40.4"/>
<path class="st2" d="M106,223.2c-22.3,0-17.8,7.4-17.8,19.1c0,5,0.6,8.7,1.6,11.4c4.6,1.8,9.7,2.9,15,2.9c6.4,0,12.5-1.5,17.9-4.2  c0.7-2.6,1.1-5.9,1.1-10.1C123.8,229.7,126.7,223.2,106,223.2z"/>
<path class="st2" d="M131.3,224.1c9.3-2.6,13.6-4.6,13.6-4.6l2.6,6.7c0,0-6.2,2.6-13.1,4.5c-4.1,1.1-8.6,2.5-12.8,2.9  c0,0-4.1,0.6-4.6-3.3c-0.3-2.8,3.7-4.1,3.7-4.1S122,226.7,131.3,224.1z"/>
<path class="st2" d="M88.8,240.8c-4.9,8.3-5.9,13.7-5.9,13.7l-7.2-4c0,0,2.5-6.8,6.1-13.1c2.1-3.6,4.6-7.1,7.3-10.3  c0,0,2.5-3.3,5.5-0.8c2.1,1.8,0.2,5.5,0.2,5.5S93.7,232.4,88.8,240.8z"/>
<circle class="st3" cx="79.3" cy="252.6" r="4.6"/>
<path class="st3" d="M155.6,214.5c-0.6-0.8-2.8,0.2-5.5,2.1c-0.5,0.3-1,0.7-1.4,1.1c0.1-0.2,0.3-0.5,0.4-0.7  c1.7-2.8,2.7-5.2,1.8-5.7c-0.9-0.5-2.8,1.4-4.4,4.1c-0.6,1.1-1.2,2.1-1.5,3c-1.4,0.8-2.3,2.3-2.3,4c0,2.6,2.2,4.7,4.8,4.7  c2.7,0,4.8-2.1,4.8-4.7c0-1.1-0.4-2.2-1.1-3c0.2-0.1,0.3-0.2,0.5-0.3C154.3,217,156.2,215.3,155.6,214.5z"/>
<path class="st4" d="M92.6,225c3.6,3.1,8.2,4.9,13.3,4.9c5.1,0,9.7-1.8,13.3-4.9c-2.7-1.2-6.8-1.8-13.2-1.8  C99.6,223.2,95.3,223.8,92.6,225z"/>
<g>
	<defs>
		<ellipse id="SVGID_1_" cx="104.8" cy="216.2" rx="40.3" ry="40.4"/>
	</defs>
	<clipPath id="SVGID_00000162328212769033646050000017831775950076240023_">
		<use xlink:href="#SVGID_1_" style="overflow:visible;"/>
	</clipPath>
	<path style="clip-path:url(#SVGID_00000162328212769033646050000017831775950076240023_);fill:#334E46;" d="M98.9,260.9l5-10h2.4   l-2.5,10.2l-0.1,0.4c0,0-0.1,0.6-0.8,0.6h-4c-0.8,0-0.2-1-0.2-1L98.9,260.9z"/>
	<path style="clip-path:url(#SVGID_00000162328212769033646050000017831775950076240023_);fill:#334E46;" d="M113.3,260.9l-5-10   h-2.4l2.5,10.2l0.1,0.4c0,0,0.1,0.6,0.8,0.6h4c0.8,0,0.2-1,0.2-1L113.3,260.9z"/>
	<path style="clip-path:url(#SVGID_00000162328212769033646050000017831775950076240023_);fill:#334E46;" d="M123.6,247.7h-35   c0.1,1.1,0.3,2.6,0.8,4.6l33.3,0C123.3,250.3,123.4,248.8,123.6,247.7z"/>
</g>
<ellipse class="st6" cx="105.9" cy="194.7" rx="32.2" ry="32.4"/>
<path class="st7" d="M132.9,191.9c-2.9,1.1-7.1,2.4-13,2.4c0,0-7.9-0.2-16.7-2c-2-0.4-4-0.8-5.8-1.2c-0.3-0.1-0.7-0.1-1.1-0.1  c-4.9-0.2-9,3.5-9.2,8.4c-0.1,2.3,0.7,4.4,2,6c3.6,4.3,10.9,7.8,25.1,7.8c20.5,0,24-7.8,24.6-14.1c0.4-3.8-1.6-7.1-4.3-7.4  C134,191.6,133.4,191.7,132.9,191.9z"/>
<path class="st8" d="M105.9,165.7c6.1,0.1,11.8,0.7,17,1.5c3.2,0.6,8.6,6.8,9.4,8.2c0.7,1.2,0.1,1,0.1,1c-7-1.8-15.4-2.9-25.6-3  c-10.5,0-20.1,1.1-27.4,3c0,0-0.6,0.2,0.1-1c0.8-1.3,6.2-7.6,9.4-8.2C94.3,166.3,99.5,165.7,105.9,165.7z"/>
<circle class="st9" cx="99.8" cy="201.3" r="5.7"/>
<circle class="st10" cx="99.8" cy="201.7" r="4.4"/>
<circle class="st9" cx="102.1" cy="199.4" r="1.2"/>
<circle class="st9" cx="128.6" cy="201.3" r="4.9"/>
<circle class="st10" cx="128.6" cy="201.7" r="3.8"/>
<circle class="st9" cx="130.6" cy="199.7" r="1.1"/>
<path class="st8" d="M78.8,175.5c-6.1-0.1-9.7,2.7-9.7,2.7L66.1,167c4.8,0,10.4,1.6,14.7,3.2c-4.8-3.8-9.3-5.5-9.3-5.5l1.3-8.9  c6.2,2.9,10.8,7.8,13.8,11.7l0,0C83.6,169.7,80.9,172.4,78.8,175.5"/>
<path id="Rectangle_3_copy_7_3_" class="st11" d="M509,201h-5.8l4.9-12.2h1.4h19.9h2.4l-4.9,12.2h-2.1H509z"/>
<path class="st9" d="M512.1,192.6h-2v-1.4h5.7v1.4h-2v6h-1.7V192.6z"/>
<path class="st9" d="M523.1,195.7c0-0.9-0.1-2-0.1-3h0c-0.2,0.9-0.5,2-0.8,2.9l-0.9,2.9H520l-0.8-2.9c-0.2-0.9-0.5-1.9-0.7-2.9h0  c0,1-0.1,2.1-0.1,3.1l-0.1,2.8h-1.5l0.5-7.4h2.2l0.7,2.5c0.2,0.9,0.5,1.8,0.6,2.6h0c0.2-0.9,0.5-1.8,0.7-2.6l0.8-2.4h2.2l0.4,7.4  h-1.6L523.1,195.7z"/>
<path class="st11" d="M182.2,242.7v14h-2.8v-14h-5.2v-2.5h13.2v2.5H182.2z"/>
<path class="st11" d="M200.8,248.9v7.8H198v-7c0-1.9-1.1-3-3-3c-2.2,0-3.6,1.7-3.6,3.9v6.2h-2.7v-17.5h2.7v7.4  c0.9-1.8,2.5-2.5,4.6-2.5C199,244.1,200.8,245.9,200.8,248.9z"/>
<path class="st11" d="M215.7,251.5h-9.5c0.4,1.9,1.9,3.1,3.9,3.1c1.4,0,2.6-0.5,3.5-1.5l1.4,1.5c-1.2,1.3-3,2.1-5.2,2.1  c-3.9,0-6.4-2.6-6.4-6.3c0-3.8,2.6-6.4,6.3-6.4C214.2,244.1,216,247,215.7,251.5z M213.3,249.5c-0.1-2-1.4-3.3-3.5-3.3  c-2,0-3.4,1.2-3.7,3.3H213.3z"/>
<path class="st11" d="M235.4,246.1l-1.5,1.7c-0.9-0.9-2.1-1.4-3.6-1.4c-2.2,0-3.7,1.6-3.7,4s1.6,4,3.7,4c1.6,0,2.9-0.5,3.7-1.5  l1.5,1.5c-1.1,1.5-2.9,2.3-5.3,2.3c-3.7,0-6.3-2.6-6.3-6.3c0-3.8,2.6-6.4,6.3-6.4C232.4,244.1,234.2,244.8,235.4,246.1z"/>
<path class="st11" d="M245.6,255.2c-0.9,1.1-2.3,1.7-4.1,1.7c-2.7,0-4.4-1.7-4.4-3.9c0-2.3,1.7-3.7,4.7-3.8h3.8v-0.4  c0-1.6-1-2.5-3-2.5c-1.2,0-2.5,0.4-3.7,1.3l-1.1-1.9c1.7-1,3-1.6,5.4-1.6c3.2,0,5,1.6,5.1,4.4l0,8.2h-2.7V255.2z M245.6,252.3v-1.2  h-3.4c-1.8,0-2.6,0.5-2.6,1.7c0,1.1,0.9,1.9,2.4,1.9C243.9,254.7,245.4,253.7,245.6,252.3z"/>
<path class="st11" d="M254.8,246.7c0.8-1.7,2.4-2.6,4.3-2.6v2.6c-2.5-0.1-4.1,1.3-4.3,3.5v6.6h-2.7v-12.5h2.7V246.7z"/>
<path class="st11" d="M268.5,243.4c0-3,2.2-4.3,4.3-4.3c0.8,0,1.7,0.2,2.3,0.6L275,242c-0.7-0.3-1.5-0.5-2.2-0.5  c-1,0-1.7,0.4-1.7,1.7v1.5h3.3v2h-3.3v10.1h-2.7v-10.1h-1.7v-2h1.7V243.4z M275.8,240.6c0-1,0.7-1.7,1.6-1.7c0.9,0,1.6,0.7,1.6,1.7  c0,0.9-0.7,1.6-1.6,1.6C276.5,242.2,275.8,241.5,275.8,240.6z M278.7,244.2v12.5H276v-12.5H278.7z"/>
<path class="st11" d="M295,248.9v7.8h-2.7v-7c0-1.9-1.1-3-3-3c-2.1,0-3.4,1.5-3.6,3.4v6.7H283v-12.5h2.7v2.4  c0.9-1.7,2.5-2.5,4.6-2.5C293.2,244.1,295,245.9,295,248.9z"/>
<path class="st11" d="M306.4,255.2c-0.9,1.1-2.3,1.7-4.1,1.7c-2.7,0-4.4-1.7-4.4-3.9c0-2.3,1.7-3.7,4.7-3.8h3.8v-0.4  c0-1.6-1-2.5-3-2.5c-1.2,0-2.5,0.4-3.7,1.3l-1.1-1.9c1.7-1,3-1.6,5.4-1.6c3.2,0,5,1.6,5.1,4.4l0,8.2h-2.7V255.2z M306.3,252.3v-1.2  H303c-1.8,0-2.6,0.5-2.6,1.7c0,1.1,0.9,1.9,2.4,1.9C304.7,254.7,306.2,253.7,306.3,252.3z"/>
<path class="st11" d="M324.9,248.9v7.8h-2.7v-7c0-1.9-1.1-3-3-3c-2.1,0-3.4,1.5-3.6,3.4v6.7h-2.7v-12.5h2.7v2.4  c0.9-1.7,2.5-2.5,4.6-2.5C323.2,244.1,324.9,245.9,324.9,248.9z"/>
<path class="st11" d="M339.1,246.1l-1.5,1.7c-0.9-0.9-2.1-1.4-3.6-1.4c-2.2,0-3.7,1.6-3.7,4s1.6,4,3.7,4c1.6,0,2.9-0.5,3.7-1.5  l1.5,1.5c-1.1,1.5-2.9,2.3-5.3,2.3c-3.7,0-6.3-2.6-6.3-6.3c0-3.8,2.6-6.4,6.3-6.4C336.2,244.1,337.9,244.8,339.1,246.1z"/>
<path class="st11" d="M352.8,251.5h-9.5c0.4,1.9,1.9,3.1,3.9,3.1c1.4,0,2.6-0.5,3.5-1.5l1.4,1.5c-1.2,1.3-3,2.1-5.2,2.1  c-3.9,0-6.4-2.6-6.4-6.3c0-3.8,2.6-6.4,6.3-6.4C351.4,244.1,353.2,247,352.8,251.5z M350.5,249.5c-0.1-2-1.4-3.3-3.5-3.3  c-2,0-3.4,1.2-3.7,3.3H350.5z"/>
<path class="st11" d="M374.2,248.9v7.8h-2.7v-7c0-1.9-1.1-3-3-3c-2.1,0-3.4,1.5-3.6,3.4v6.7h-2.7v-12.5h2.7v2.4  c0.9-1.7,2.5-2.5,4.6-2.5C372.5,244.1,374.2,245.9,374.2,248.9z"/>
<path class="st11" d="M381,240.6c0,0.9-0.7,1.6-1.6,1.6s-1.6-0.7-1.6-1.6c0-1,0.7-1.7,1.6-1.7S381,239.6,381,240.6z M378.1,256.7  v-12.5h2.7v12.5H378.1z"/>
<path class="st11" d="M397,248.9v7.8h-2.7v-7c0-1.9-1.1-3-3-3c-2.1,0-3.4,1.5-3.6,3.4v6.7H385v-12.5h2.7v2.4  c0.9-1.7,2.5-2.5,4.6-2.5C395.3,244.1,397,245.9,397,248.9z"/>
<path class="st11" d="M403.6,257.1c0,3-2.1,4.3-4.1,4.3c-0.9,0-1.9-0.3-2.6-0.8l0.9-2.1c0.5,0.4,1.1,0.6,1.6,0.6  c0.8,0,1.5-0.5,1.5-1.7v-13.2h2.7V257.1z M403.9,240.6c0,0.9-0.7,1.7-1.7,1.7c-0.9,0-1.7-0.7-1.7-1.7c0-1,0.7-1.7,1.7-1.7  C403.2,238.9,403.9,239.6,403.9,240.6z"/>
<path class="st11" d="M415.4,255.2c-0.9,1.1-2.3,1.7-4.1,1.7c-2.7,0-4.4-1.7-4.4-3.9c0-2.3,1.7-3.7,4.7-3.8h3.8v-0.4  c0-1.6-1-2.5-3-2.5c-1.2,0-2.5,0.4-3.7,1.3l-1.1-1.9c1.7-1,3-1.6,5.4-1.6c3.2,0,5,1.6,5.1,4.4l0,8.2h-2.7V255.2z M415.4,252.3v-1.2  H412c-1.8,0-2.6,0.5-2.6,1.7c0,1.1,0.9,1.9,2.4,1.9C413.8,254.7,415.3,253.7,415.4,252.3z"/>
<path class="st11" d="M430.1,245.3l-1,2c-1.1-0.7-2.5-1.1-3.6-1.1c-1.1,0-1.8,0.4-1.8,1.2c0,2.3,6.7,1.1,6.6,5.6  c0,2.6-2.3,3.7-4.8,3.7c-1.8,0-3.8-0.6-5-1.7l1-1.9c1.1,1,2.8,1.6,4.2,1.6c1.2,0,2.1-0.4,2.1-1.3c0-2.6-6.6-1.1-6.6-5.7  c0-2.5,2.2-3.6,4.6-3.6C427.3,244.1,429,244.5,430.1,245.3z"/>
<g>
</g>
<g>
</g>
<g>
</g>
<g>
</g>
<g>
</g>
<g>
</g>
</svg>
