<?xml version="1.0" encoding="UTF-8"?> <svg xmlns="http://www.w3.org/2000/svg" id="Front" viewBox="0 0 490 50"><defs><style>.cls-1{fill:#283876;}.cls-2{fill:#a6a6a6;}.cls-3{fill:#e5312d;}</style></defs><path class="cls-1" d="M41.08,45h5.7L37.65,5.68,26.78,29.46c-.11.24-.26.59-.47,1a42.45,42.45,0,0,0-1.7,4.13c-.5-1.29-.92-2.37-1.27-3.25s-.62-1.5-.79-1.88L11.42,5.68,2.5,45H8.14l4-18.58a26.69,26.69,0,0,0,.5-2.72,24.54,24.54,0,0,0,.2-2.48q.33,1.16.78,2.34c.3.79.66,1.61,1.07,2.45l9.87,20.52,9.87-20.11a21.07,21.07,0,0,0,1.07-2.63,17.33,17.33,0,0,0,.66-2.57q.15,1.08.36,2.73c.16,1.32.27,2.13.34,2.42L41.08,45ZM51.82,12.49a3.49,3.49,0,0,0,5,0,3.44,3.44,0,0,0,1-2.51,3.49,3.49,0,0,0-6-2.45,3.3,3.3,0,0,0-1,2.45,3.36,3.36,0,0,0,1,2.48ZM57.11,45V20.57H51.52V45Zm23.72-6.24a6.65,6.65,0,0,1-9.88.16,9.21,9.21,0,0,1-1.75-6A9.2,9.2,0,0,1,71,26.87a6.14,6.14,0,0,1,5-2.17,6.07,6.07,0,0,1,4.93,2.11,8.94,8.94,0,0,1,1.77,5.9,9.23,9.23,0,0,1-1.88,6Zm1.72-14.19a7.3,7.3,0,0,0-3.1-3.6,10.75,10.75,0,0,0-13.06,2.35,14.14,14.14,0,0,0-3,9.44q0,6.16,3,9.71A10.08,10.08,0,0,0,74.49,46a9.26,9.26,0,0,0,8.06-4.18V45h5.59V5.06H82.55V24.57ZM101.78,45V5.06H96.19V45Zm31-24.43h-5.59v4a7.27,7.27,0,0,0-3.11-3.6,10.74,10.74,0,0,0-13,2.35,14.09,14.09,0,0,0-3,9.44q0,6.16,3,9.71A10.07,10.07,0,0,0,119.15,46a9.26,9.26,0,0,0,8.07-4.18V45h5.59V20.57Zm-7.33,18.17a6.61,6.61,0,0,1-9.86.18,9.15,9.15,0,0,1-1.75-6,9.14,9.14,0,0,1,1.82-6.05,6.82,6.82,0,0,1,9.92-.06,9,9,0,0,1,1.76,5.9,9.18,9.18,0,0,1-1.89,6ZM146.19,45V33.87a28.43,28.43,0,0,1,.24-4.39,5.6,5.6,0,0,1,.87-2.26,5.73,5.73,0,0,1,2.41-2,8,8,0,0,1,3.49-.73c2,0,3.38.53,4.16,1.59s1.17,3.19,1.17,6.4V45h5.65V30.19a25.79,25.79,0,0,0-.29-4.69,6.76,6.76,0,0,0-.92-2.35,6.82,6.82,0,0,0-3-2.57,11.39,11.39,0,0,0-4.65-.86,12,12,0,0,0-5.51,1.16,10.53,10.53,0,0,0-4,3.69v-4H140.6V45Z"></path><path class="cls-1" d="M187.19,38.76a6.64,6.64,0,0,1-9.87.16,9.15,9.15,0,0,1-1.75-6,9.19,9.19,0,0,1,1.81-6.05,6.17,6.17,0,0,1,5-2.17,6.09,6.09,0,0,1,4.94,2.11,9,9,0,0,1,1.76,5.9,9.23,9.23,0,0,1-1.88,6Zm1.73-14.19a7.32,7.32,0,0,0-3.11-3.6,10.74,10.74,0,0,0-13.05,2.35,14.09,14.09,0,0,0-3,9.44q0,6.16,3,9.71A10.11,10.11,0,0,0,180.85,46a9.26,9.26,0,0,0,8.07-4.18V45h5.59V5.06h-5.59V24.57Z"></path><path class="cls-2" d="M347.08,43.38a3.47,3.47,0,0,0,4.81,0,3.19,3.19,0,0,0,1-2.36,3.37,3.37,0,0,0-1-2.43,3.37,3.37,0,0,0-4.81,0,3.37,3.37,0,0,0-1,2.43,3.19,3.19,0,0,0,1,2.36Zm32.6-23.31a11.78,11.78,0,0,0-3-1.14,15.41,15.41,0,0,0-3.51-.38,13.56,13.56,0,0,0-9.83,3.63,12.68,12.68,0,0,0-3.76,9.54,13,13,0,0,0,3.63,9.51,12.65,12.65,0,0,0,9.39,3.66,15.2,15.2,0,0,0,3.76-.44,13.28,13.28,0,0,0,3.32-1.31V36.68A7.91,7.91,0,0,1,376.86,39a8.35,8.35,0,0,1-3.64.76,7.56,7.56,0,0,1-5.75-2.18,8.35,8.35,0,0,1-2.07-6,8.28,8.28,0,0,1,2.06-5.89,7.16,7.16,0,0,1,5.5-2.22,9.18,9.18,0,0,1,3.71.75,8.88,8.88,0,0,1,3,2.16v-6.3Zm22.81,17.42a7.23,7.23,0,0,1-10.71,0,8.1,8.1,0,0,1-2.21-5.77A8.1,8.1,0,0,1,391.78,26a7.28,7.28,0,0,1,10.73,0,8.17,8.17,0,0,1,2.19,5.77,8.1,8.1,0,0,1-2.21,5.77Zm-17.83-.76A13.64,13.64,0,0,0,392,43.9a13.55,13.55,0,0,0,5.11,1,13.71,13.71,0,0,0,5.17-1A14.29,14.29,0,0,0,406.72,41a12.56,12.56,0,0,0,2.9-4.21,13.13,13.13,0,0,0,1-5.09,12.74,12.74,0,0,0-4-9.24,13.14,13.14,0,0,0-4.37-2.9,14.15,14.15,0,0,0-10.35,0,13.28,13.28,0,0,0-4.33,2.82,13,13,0,0,0-2.95,14.38Zm33.65,6.65a3.47,3.47,0,0,0,4.81,0,3.19,3.19,0,0,0,1-2.36,3.37,3.37,0,0,0-1-2.43,3.37,3.37,0,0,0-4.81,0,3.37,3.37,0,0,0-1,2.43,3.19,3.19,0,0,0,1,2.36Zm14.13-24V31.52q0,7.06,2.82,10.22t9.09,3.15q6.16,0,9-3.17t2.82-10.2V19.4h-5.6V33.19c0,2.38-.5,4.08-1.48,5.12s-2.57,1.55-4.77,1.55-3.8-.52-4.78-1.55-1.47-2.74-1.47-5.12V19.4Z"></path><polygon class="cls-2" points="469.27 43.88 469.27 31.26 480.27 43.88 487.5 43.88 475.34 30.2 486.44 19.4 479.52 19.4 469.27 29.55 469.27 3.86 463.66 3.86 463.66 43.88 469.27 43.88 469.27 43.88"></polygon><path class="cls-3" d="M231.35,8.7a21.93,21.93,0,0,0-5.87-2.93,20.65,20.65,0,0,0-6.37-1,21.28,21.28,0,0,0-7.89,1.43,19.41,19.41,0,0,0-10.78,10.66,21.4,21.4,0,0,0,0,15.69,19,19,0,0,0,10.74,10.6,23.39,23.39,0,0,0,14.38.54A18.33,18.33,0,0,0,231,41.05v-7a20.63,20.63,0,0,1-5.84,3.6,17.48,17.48,0,0,1-6.4,1.19,12.65,12.65,0,0,1-9.57-4,14.11,14.11,0,0,1-3.79-10.12,14.14,14.14,0,0,1,3.9-10.32,13.47,13.47,0,0,1,10.1-4,16.82,16.82,0,0,1,6.12,1.12A19,19,0,0,1,231,14.91l.33-6.21ZM243.8,19h-5.61V43.59h5.61V32.82c0-3.52.41-6,1.22-7.52a4.21,4.21,0,0,1,4-2.23,6.86,6.86,0,0,1,1.88.24,5.16,5.16,0,0,1,1.56.77l2-4.77a12.33,12.33,0,0,0-2.26-.83,10.28,10.28,0,0,0-2.35-.28,5.77,5.77,0,0,0-3.68,1.17A7.9,7.9,0,0,0,243.8,23V19Zm37.53,12.09q0-6.1-3.31-9.5t-9.24-3.39a12.4,12.4,0,0,0-9.28,3.71,13,13,0,0,0-3.61,9.49,13.19,13.19,0,0,0,3.49,9.6,12.49,12.49,0,0,0,9.4,3.6A13.89,13.89,0,0,0,276,42.79a14.39,14.39,0,0,0,5.12-5.52l-4.74-2.63a9.37,9.37,0,0,1-3.15,3.67,8.37,8.37,0,0,1-4.53,1.14,6.41,6.41,0,0,1-4.89-1.93,8.21,8.21,0,0,1-2.05-5.37h19.62V31.09Zm-19.26-2.72a7.25,7.25,0,0,1,2.36-4.06A6.89,6.89,0,0,1,268.88,23a7.06,7.06,0,0,1,4.61,1.39,6,6,0,0,1,2,4Zm40.84,8.94a6.67,6.67,0,0,1-9.91.17,9.2,9.2,0,0,1-1.76-6,9.24,9.24,0,0,1,1.82-6.07,6.2,6.2,0,0,1,5-2.18,6.09,6.09,0,0,1,5,2.12,9,9,0,0,1,1.77,5.92,9.22,9.22,0,0,1-1.89,6.07Zm1.74-14.24a7.36,7.36,0,0,0-3.12-3.61,10.78,10.78,0,0,0-13.11,2.35,14.17,14.17,0,0,0-3.05,9.48q0,6.2,3,9.75a10.16,10.16,0,0,0,8.2,3.56,9.36,9.36,0,0,0,8.1-4.19v3.18h5.61V3.47h-5.61v19.6Zm13.93-12.13a3.41,3.41,0,0,0,2.5,1.05,3.35,3.35,0,0,0,2.48-1,3.44,3.44,0,0,0,1-2.53A3.4,3.4,0,0,0,321.08,5a3.44,3.44,0,0,0-2.5,1,3.32,3.32,0,0,0-1.05,2.45,3.41,3.41,0,0,0,1.05,2.5Zm5.32,32.65V19.06h-5.62V43.59Z"></path><polygon class="cls-3" points="338.96 43.59 338.96 23.97 343.26 23.97 343.26 19.05 338.96 19.05 338.96 9.77 333.35 9.77 333.35 19.05 329.05 19.05 329.05 23.97 333.35 23.97 333.35 43.59 338.96 43.59 338.96 43.59"></polygon></svg> 