<svg xmlns="http://www.w3.org/2000/svg" viewBox="0 0 32 32" role="img" aria-label="DriveLine">
  <defs>
    <linearGradient id="dl-bg" x1="0%" y1="0%" x2="100%" y2="100%">
      <stop offset="0%" stop-color="#1e40af"/>
      <stop offset="100%" stop-color="#0f172a"/>
    </linearGradient>
    <linearGradient id="dl-accent" x1="0%" y1="0%" x2="100%" y2="0%">
      <stop offset="0%" stop-color="#f97316"/>
      <stop offset="100%" stop-color="#fb923c"/>
    </linearGradient>
  </defs>
  <rect width="32" height="32" rx="7" fill="url(#dl-bg)"/>
  <!-- Road line -->
  <rect x="5" y="22" width="22" height="2.5" rx="1.25" fill="#334155"/>
  <rect x="5" y="22" width="8" height="2.5" rx="1.25" fill="url(#dl-accent)"/>
  <!-- Car body (side silhouette) -->
  <path fill="#e2e8f0" d="M7 15.5h4.5l1.2-2.2h6.6l1.2 2.2H25c.8 0 1.5.7 1.5 1.5v3c0 .6-.4 1-1 1H7c-.6 0-1-.4-1-1v-3c0-.8.7-1.5 1.5-1.5z"/>
  <path fill="#94a3b8" d="M7 17h18v1.2H7z"/>
  <!-- Wheels -->
  <circle cx="11" cy="21" r="2.2" fill="#1e293b" stroke="#475569" stroke-width="0.6"/>
  <circle cx="21" cy="21" r="2.2" fill="#1e293b" stroke="#475569" stroke-width="0.6"/>
  <circle cx="11" cy="21" r="0.9" fill="#64748b"/>
  <circle cx="21" cy="21" r="0.9" fill="#64748b"/>
</svg>
