<svg xmlns="http://www.w3.org/2000/svg" width="1200" height="630" viewBox="0 0 1200 630" role="img" aria-label="DriveLine  Quality used cars and vans">
  <defs>
    <linearGradient id="og-bg" x1="0%" y1="0%" x2="100%" y2="100%">
      <stop offset="0%" stop-color="#0f172a"/>
      <stop offset="55%" stop-color="#1e3a5f"/>
      <stop offset="100%" stop-color="#172554"/>
    </linearGradient>
    <linearGradient id="og-mark" x1="0%" y1="0%" x2="100%" y2="100%">
      <stop offset="0%" stop-color="#2563eb"/>
      <stop offset="100%" stop-color="#1e40af"/>
    </linearGradient>
  </defs>
  <rect width="1200" height="630" fill="url(#og-bg)"/>
  <!-- Accent strip -->
  <rect x="0" y="0" width="8" height="630" fill="#2563eb"/>
  <g transform="translate(80, 165)">
    <rect width="140" height="140" rx="32" fill="url(#og-mark)"/>
    <g fill="#ffffff" transform="translate(22, 30) scale(4.2)">
      <path d="M18.92 6.01C18.72 5.42 18.16 5 17.5 5h-11c-.66 0-1.21.42-1.42 1.01L3 12v8c0 .55.45 1 1 1h1c.55 0 1-.45 1-1v-1h12v1c0 .55.45 1 1 1h1c.55 0 1-.45 1-1v-8l-2.08-5.99zM6.5 16c-.83 0-1.5-.67-1.5-1.5S5.67 13 6.5 13s1.5.67 1.5 1.5S7.33 16 6.5 16zm11 0c-.83 0-1.5-.67-1.5-1.5s.67-1.5 1.5-1.5 1.5.67 1.5 1.5-.67 1.5-1.5 1.5zM5 11l1.5-4.5h11L19 11H5z"/>
    </g>
  </g>
  <text x="280" y="280" fill="#ffffff" font-family="system-ui, -apple-system, 'Segoe UI', sans-serif" font-size="86" font-weight="800" letter-spacing="-0.02em">
    Drive<tspan fill="#60a5fa">Line</tspan>
  </text>
  <text x="280" y="360" fill="#94a3b8" font-family="system-ui, -apple-system, 'Segoe UI', sans-serif" font-size="32" font-weight="500">
    Quality used cars &amp; vans ¯ Peterborough
  </text>
  <text x="280" y="420" fill="#64748b" font-family="system-ui, -apple-system, 'Segoe UI', sans-serif" font-size="24">
    drivelinecarsales.co.uk
  </text>
</svg>
