<svg xmlns="http://www.w3.org/2000/svg" viewBox="0 0 80 26" role="img" aria-label="American Express">
  <rect width="80" height="26" rx="4" fill="#006fcf"/>
  <path fill="#fff" d="M8.5 17.5V8.5h4.2l1.3 2.2 1.3-2.2h4.1v9h-3v-5.5l-1.8 3h-2.8l-1.8-3v5.5h-3zm18.2 0-2-9h3.4l1 5.3 1-5.3h3.3l-2 9h-4.7zm8.3 0V8.5h6.8v2.2h-3.8v1.3h3.6v2h-3.6v1.3h3.8v2.2h-6.8zm10.5 0V8.5h3.9c2.4 0 3.8 1.2 3.8 3.1 0 1.3-.6 2.2-1.7 2.7l2 3.2h-3.5l-1.6-2.8h-.9v2.8h-3zm3-5.5h.9c.9 0 1.4-.4 1.4-1.1 0-.7-.5-1.1-1.4-1.1h-.9v2.2zm9.1 5.5V8.5h3l3.4 6.1V8.5h2.8v9h-3l-3.4-6.1v6.1h-2.8z"/>
</svg>
