<svg width="48" height="32" viewBox="0 0 48 32" fill="none" xmlns="http://www.w3.org/2000/svg">
<rect width="48" height="32" rx="4" fill="white"/>
<path fill-rule="evenodd" clip-rule="evenodd" d="M32.0135 18.602C32.0208 16.8022 30.5363 16.0248 29.3844 15.4215C28.6551 15.0396 28.0591 14.7274 28.0591 14.2698C28.0591 13.8803 28.4368 13.4671 29.2395 13.3609C30.1948 13.2664 31.1579 13.4337 32.0253 13.8449L32.5211 11.484C31.6755 11.1669 30.7801 11.003 29.8769 11C27.0911 11 25.1552 12.4874 25.1552 14.6121C25.1552 16.1821 26.5599 17.0556 27.6223 17.575C28.6847 18.0944 29.0978 18.4604 29.086 18.9325C29.086 19.6644 28.2125 19.9949 27.398 20.0067C26.3933 20.0197 25.4019 19.7759 24.5177 19.2985L24.0102 21.6594C25.0106 22.0499 26.0762 22.2462 27.1501 22.2378C30.113 22.2378 32.0607 20.774 32.0726 18.5076L32.0135 18.602ZM24.3525 11.1889L21.9916 22.1079H19.1586L21.5195 11.1889H24.3525ZM36.2277 18.2715L37.715 14.1754L38.5767 18.2715H36.2277ZM42 22.1433H39.3794L39.0371 20.5143H35.484L34.9056 22.1433H31.9309L36.1686 12.027C36.364 11.5457 36.8296 11.229 37.3491 11.2243H39.7099L42 22.1433ZM15.7943 22.0725L20.3744 11.1535H17.3052L14.3659 18.5784L13.1855 12.2631C13.081 11.6213 12.5254 11.1508 11.8752 11.1535H7.07083L7 11.4722C7.96364 11.6607 8.89964 11.9701 9.78583 12.3929C10.1633 12.5704 10.4191 12.9339 10.4587 13.3491L12.7133 22.0725H15.7943Z" fill="#2A2A6C"/>
</svg>
