<svg xmlns="http://www.w3.org/2000/svg" viewBox="0 0 80 26" role="img" aria-label="Visa">
  <rect width="80" height="26" rx="4" fill="#1a1f71"/>
  <path fill="#fff" d="M34.6 18.3h-4.5l2.8-10.6h4.5l-2.8 10.6zm16.8-6.9c0-1.7-1.5-2.4-3.1-2.4-1.4 0-2.5.3-3.4.9l-.6 2.8c.9-.5 2-.8 3.1-.8.8 0 1.7.3 1.7 1 0 .9-1 .9-2.8 1.3-2.1.5-3.9 1.5-3.9 3.8 0 2.2 1.9 3.4 4 3.4 1.1 0 2.4-.2 3.3-.7l.6-2.7c-.8.4-2 .7-2.9.7-.8 0-1.4-.2-1.4-.8 0-.8 1-.9 2.6-1.3 2.2-.5 4-1.4 4-3.9zm9.1 6.9h-3.5l.2-1.1c-.9.9-2.1 1.3-3.4 1.3-2.2 0-3.7-1.5-3.7-3.6 0-3.2 2.3-5 5.4-5 1.2 0 2.2.3 2.8.7l.7-3.2h4.2l-2.7 10.9zm-4.2-2.5c1 0 1.8-.5 2.2-1.3l.5-2.2c-.4-.3-1-.5-1.7-.5-1.6 0-2.7 1-2.7 2.4 0 1 .7 1.6 1.7 1.6zm-27.8 2.5L22.3 7.7h-5.1l-5.5 10.6h4.4l.8-1.8h4.8l.5 1.8h4.9zm-2.8-6.2 1.2 3.6h-3.3l2.1-3.6zM9.4 7.7 5 18.3H.5L4.9 7.7h4.5z"/>
</svg>
